<svg width="48" height="48" viewBox="0 0 48 48" fill="none" xmlns="http://www.w3.org/2000/svg">
<g clip-path="url(#clip0_1_9406)">
<path d="M23.0215 46.8923L23.0215 1.10766C23.0215 0.563046 23.4615 0.123046 24.0061 0.123046C24.5507 0.123047 24.9907 0.563047 24.9907 1.10766L24.9907 44.5138L30.9661 38.5384C31.3507 38.1538 31.9754 38.1538 32.36 38.5384C32.7446 38.923 32.7446 39.5477 32.36 39.9323L24.7015 47.5907C24.4184 47.8738 23.9969 47.9569 23.6277 47.8031C23.2615 47.6492 23.0215 47.2892 23.0215 46.8923Z" fill="#D0D0D0"/>
<path d="M15.3539 39.2246C15.3539 38.9723 15.4493 38.72 15.6432 38.5292C16.0278 38.1446 16.6524 38.1446 17.037 38.5292L24.7047 46.1969C25.0893 46.5815 25.0893 47.2061 24.7047 47.5907C24.3201 47.9753 23.6955 47.9753 23.3109 47.5907L15.6432 39.923C15.4493 39.7292 15.3539 39.4769 15.3539 39.2246Z" fill="#D0D0D0"/>
</g>
<defs>
<clipPath id="clip0_1_9406">
<rect width="48" height="48" fill="white" transform="translate(48) rotate(90)"/>
</clipPath>
</defs>
</svg>
