<svg width="64" height="64" viewBox="0 0 64 64" fill="none" xmlns="http://www.w3.org/2000/svg">
<path d="M41.2594 30.9024L29.6025 22.4287C29.1747 22.1186 28.6068 22.0719 28.1379 22.3129C27.6653 22.552 27.3701 23.0377 27.3701 23.5627V40.5044C27.3701 41.0349 27.6653 41.5187 28.1379 41.7579C28.3378 41.8587 28.5564 41.9092 28.7768 41.9092C29.0645 41.9092 29.3559 41.8176 29.6025 41.6364L41.2594 33.1702C41.6274 32.8994 41.8422 32.4809 41.8422 32.0363C41.8441 31.5842 41.6236 31.1676 41.2594 30.9024Z" fill="white"/>
<path d="M32.0008 10C19.8481 10 10 19.8494 10 32.0037C10 44.1536 19.8481 54.0001 32.0008 54.0001C44.1505 54.0001 54.0001 44.1521 54.0001 32.0037C54.0015 19.8494 44.1505 10 32.0008 10ZM32.0008 50.3289C21.8804 50.3289 13.6751 42.1269 13.6751 32.0037C13.6751 21.8849 21.8804 13.6727 32.0008 13.6727C42.1197 13.6727 50.3235 21.8834 50.3235 32.0037C50.325 42.1269 42.1197 50.3289 32.0008 50.3289Z" fill="white"/>
</svg>
