<svg width="30" height="30" viewBox="0 0 30 30" fill="none" xmlns="http://www.w3.org/2000/svg">
<g clip-path="url(#clip0_0_19)">
<path d="M7.9 6C7.9 5.39252 8.39252 4.9 9 4.9H28.5C29.1075 4.9 29.6 5.39252 29.6 6C29.6 6.60748 29.1075 7.1 28.5 7.1H9C8.39253 7.1 7.9 6.60744 7.9 6ZM1.5 13.9H28.5C29.1075 13.9 29.6 14.3926 29.6 15C29.6 15.6075 29.1075 16.1 28.5 16.1H15H1.5C0.892515 16.1 0.4 15.6075 0.4 15C0.4 14.3926 0.892526 13.9 1.5 13.9ZM15 22.9H28.5C29.1075 22.9 29.6 23.3925 29.6 24C29.6 24.6074 29.1075 25.1 28.5 25.1H15C14.3926 25.1 13.9 24.6074 13.9 24C13.9 23.3925 14.3926 22.9 15 22.9Z" fill="white" stroke="#1B1B1B" stroke-width="0.8"/>
</g>
<defs>
<clipPath id="clip0_0_19">
<rect width="30" height="30" fill="white"/>
</clipPath>
</defs>
</svg>
