<svg width="287" height="97" viewBox="0 0 287 97" fill="none" xmlns="http://www.w3.org/2000/svg">
<circle cx="238.59" cy="48.4105" r="47.9105" fill="#1B1B1B" stroke="#393939"/>
<g clip-path="url(#clip0_1_9452)">
<path fill-rule="evenodd" clip-rule="evenodd" d="M244.199 50.9709C243.252 51.358 242.647 52.8408 242.033 53.5984C241.718 53.9864 241.343 54.047 240.859 53.8525C237.304 52.4361 234.579 50.0638 232.617 46.7922C232.285 46.2848 232.344 45.8841 232.745 45.4129C233.337 44.715 234.082 43.9223 234.243 42.9819C234.598 40.9018 231.879 34.4495 228.288 37.3731C217.954 45.7941 245.527 68.1287 250.503 56.0489C251.911 52.6248 245.769 50.3277 244.199 50.9709ZM238.225 68.6976C234.57 68.6976 230.974 67.7259 227.825 65.8863C227.32 65.5901 226.709 65.5119 226.144 65.6654L219.303 67.5432L221.686 62.2931C222.01 61.5785 221.927 60.7467 221.469 60.1113C218.919 56.5777 217.572 52.4058 217.572 48.0453C217.572 36.6566 226.836 27.392 238.225 27.392C249.613 27.392 258.877 36.6566 258.877 48.0453C258.877 59.433 249.612 68.6976 238.225 68.6976ZM238.225 23.0217C224.427 23.0217 213.201 34.2471 213.201 48.0453C213.201 52.8995 214.579 57.5611 217.198 61.6069L213.397 69.979C213.046 70.7522 213.174 71.6574 213.723 72.3015C214.145 72.7952 214.756 73.0689 215.387 73.0689C216.796 73.0689 224.482 70.6535 226.438 70.1169C230.054 72.0513 234.11 73.0689 238.225 73.0689C252.022 73.0689 263.248 61.8425 263.248 48.0453C263.248 34.2471 252.022 23.0217 238.225 23.0217Z" fill="white"/>
</g>
<defs>
<clipPath id="clip0_1_9452">
<rect width="50" height="50" fill="white" transform="translate(213.201 23.0217) scale(1.00094)"/>
</clipPath>
</defs>
</svg>
