<svg width="13" height="13" viewBox="0 0 13 13" fill="none" xmlns="http://www.w3.org/2000/svg">
<path d="M13.0005 12.9996V8.23859C13.0005 5.89874 12.4968 4.11134 9.76697 4.11134C8.4508 4.11134 7.57336 4.8263 7.21588 5.50876H7.18338V4.32258H4.59979V12.9996H7.29712V8.69356C7.29712 7.55613 7.50836 6.46745 8.90577 6.46745C10.2869 6.46745 10.3032 7.75112 10.3032 8.75856V12.9833H13.0005V12.9996Z" fill="white"/>
<path d="M0.210253 4.32209H2.90759V12.9991H0.210253V4.32209Z" fill="white"/>
<path d="M1.5599 0C0.698707 0 0 0.698707 0 1.5599C0 2.4211 0.698707 3.13606 1.5599 3.13606C2.4211 3.13606 3.11981 2.4211 3.11981 1.5599C3.11981 0.698707 2.4211 0 1.5599 0Z" fill="white"/>
</svg>
