<svg width="13" height="11" viewBox="0 0 13 11" fill="none" xmlns="http://www.w3.org/2000/svg">
<path d="M13.0002 1.25127C12.5127 1.46252 12.0089 1.60877 11.4727 1.67378C12.0252 1.34877 12.4477 0.828763 12.6427 0.195003C12.1227 0.503758 11.5539 0.715011 10.9527 0.845013C10.4652 0.325005 9.7664 0 9.00264 0C7.52386 0 6.3376 1.20252 6.3376 2.66504C6.3376 2.87629 6.35385 3.0713 6.4026 3.2663C4.19256 3.1688 2.24253 2.09628 0.926264 0.487507C-0.0162502 2.17753 1.04002 3.57505 1.73878 4.04631C1.31627 4.04631 0.893764 3.91631 0.536258 3.72131C0.536258 5.03758 1.46252 6.12634 2.66504 6.3701C2.40504 6.45135 1.82003 6.5001 1.46252 6.41885C1.80378 7.47511 2.79504 8.25513 3.94881 8.27138C3.0388 8.98639 1.70628 9.55514 0 9.37639C1.18627 10.1402 2.58379 10.5789 4.09506 10.5789C9.00264 10.5789 11.6677 6.51635 11.6677 3.0063C11.6677 2.89254 11.6677 2.77879 11.6514 2.66504C12.2039 2.25878 12.6589 1.78753 13.0002 1.25127Z" fill="white"/>
</svg>
