<svg width="287" height="97" viewBox="0 0 287 97" fill="none" xmlns="http://www.w3.org/2000/svg">
<circle cx="238.365" cy="48.3649" r="47.8649" fill="#1B1B1B" stroke="#393939"/>
<g clip-path="url(#clip0_1_21038)">
<path fill-rule="evenodd" clip-rule="evenodd" d="M243.969 50.9229C243.023 51.3096 242.418 52.791 241.805 53.5479C241.49 53.9355 241.115 53.9961 240.632 53.8018C237.08 52.3867 234.358 50.0166 232.398 46.748C232.066 46.2412 232.125 45.8408 232.526 45.3701C233.117 44.6729 233.862 43.8809 234.022 42.9414C234.377 40.8633 231.66 34.417 228.073 37.3379C217.748 45.751 245.295 68.0645 250.267 55.9961C251.673 52.5752 245.537 50.2803 243.969 50.9229ZM238 68.6328C234.349 68.6328 230.756 67.6621 227.611 65.8242C227.106 65.5283 226.495 65.4502 225.931 65.6035L219.096 67.4795L221.477 62.2344C221.801 61.5205 221.718 60.6895 221.26 60.0547C218.713 56.5244 217.366 52.3564 217.366 48C217.366 36.6221 226.622 27.3662 238 27.3662C249.378 27.3662 258.633 36.6221 258.633 48C258.633 59.377 249.377 68.6328 238 68.6328ZM238 23C224.215 23 213 34.2148 213 48C213 52.8496 214.377 57.5068 216.993 61.5488L213.196 69.9131C212.845 70.6855 212.973 71.5898 213.522 72.2334C213.944 72.7266 214.554 73 215.184 73C216.592 73 224.271 70.5869 226.225 70.0508C229.837 71.9834 233.889 73 238 73C251.784 73 263 61.7842 263 48C263 34.2148 251.784 23 238 23Z" fill="white"/>
</g>
<defs>
<clipPath id="clip0_1_21038">
<rect width="50" height="50" fill="white" transform="translate(213 23)"/>
</clipPath>
</defs>
</svg>
